<mxfile host="app.diagrams.net" modified="2024-05-08T14:50:55.018Z" agent="Mozilla/5.0 (Macintosh; Intel Mac OS X 10_15_7) AppleWebKit/537.36 (KHTML, like Gecko) Chrome/124.0.0.0 Safari/537.36" version="24.2.2" etag="0zruEPwNvChEHAwIsMVo" type="github">
  <diagram name="Page-1" id="cVEh2m8hDbdxJ7k7HoBp">
    <mxGraphModel>
      <root>
        <mxCell id="0" />
        <mxCell id="1" parent="0" />
      </root>
    </mxGraphModel>
  </diagram>
</mxfile>
